<?xml version="1.0" standalone="no"?>
<!DOCTYPE svg PUBLIC "-//W3C//DTD SVG 20010904//EN"
 "http://www.w3.org/TR/2001/REC-SVG-20010904/DTD/svg10.dtd">
<svg version="1.0" xmlns="http://www.w3.org/2000/svg"
 width="233.000000pt" height="93.000000pt" viewBox="0 0 233.000000 93.000000"
 preserveAspectRatio="xMidYMid meet">

<g transform="translate(0.000000,93.000000) scale(0.100000,-0.100000)"
fill="#000000" stroke="none">
<path d="M146 828 c-3 -13 -6 -37 -6 -54 0 -17 -7 -37 -15 -44 -8 -7 -15 -29
-15 -50 0 -24 -5 -40 -15 -44 -10 -3 -15 -19 -15 -42 0 -27 5 -37 20 -41 18
-5 20 -14 20 -84 0 -43 5 -81 10 -84 6 -3 10 -50 10 -103 0 -119 19 -170 73
-195 30 -14 71 -17 272 -17 357 0 341 -18 351 387 5 200 4 272 -4 277 -7 4
-12 22 -12 39 0 18 -3 42 -6 55 l-6 22 -328 0 -328 0 -6 -22z m304 -138 c0
-28 3 -30 35 -30 32 0 35 2 35 30 0 30 1 30 55 30 52 0 55 -1 55 -25 0 -14 -5
-25 -11 -25 -6 0 -9 -6 -6 -14 3 -7 1 -19 -4 -25 -6 -8 -5 -8 3 -1 21 18 32
11 13 -10 -9 -10 -22 -18 -28 -17 -6 1 -11 -8 -12 -20 0 -12 -9 -30 -19 -40
-18 -17 -19 -17 -12 2 5 16 2 15 -14 -5 -11 -14 -24 -43 -29 -65 -10 -39 -10
-39 -5 10 3 28 11 57 17 65 8 11 7 11 -7 -1 -9 -9 -21 -38 -25 -65 l-9 -49 -1
52 c0 28 -5 54 -9 57 -5 3 -7 -21 -6 -52 3 -53 2 -54 -5 -14 -4 25 -19 54 -36
72 -29 30 -49 32 -38 4 5 -14 3 -14 -15 -3 -11 7 -19 16 -16 20 2 4 -9 19 -26
32 -28 24 -29 26 -10 32 11 3 23 4 28 1 4 -2 9 4 9 15 1 10 -2 19 -8 19 -5 0
-9 11 -9 25 0 24 3 25 55 25 54 0 55 0 55 -30z m265 -81 c5 -6 4 -9 -4 -9 -7
0 -9 -4 -6 -10 3 -5 1 -10 -5 -10 -6 0 -9 -4 -5 -10 3 -5 -12 -28 -34 -50 -37
-38 -40 -39 -53 -23 -15 21 -42 29 -36 11 3 -7 11 -13 18 -13 7 0 15 -6 18
-14 3 -8 0 -11 -7 -7 -6 4 -11 1 -11 -6 -1 -7 -7 -2 -15 12 l-15 25 6 -30 c4
-23 3 -26 -5 -15 -10 13 -11 13 -11 0 0 -13 -2 -13 -9 -1 -7 11 -10 10 -14 -5
-4 -18 -5 -18 -5 1 -1 11 5 34 13 50 l14 30 -5 -30 -5 -30 17 30 c9 17 22 37
29 45 7 8 11 23 10 33 -2 11 -1 16 2 13 3 -3 17 3 31 14 24 20 64 19 87 -1z
m-398 -9 c34 -20 37 -45 11 -79 -12 -15 -11 -15 6 -1 18 14 19 13 13 -2 -4
-13 -1 -16 14 -13 16 3 19 0 14 -18 -5 -20 -5 -20 8 2 l14 24 11 -29 c8 -23
11 -25 12 -9 l1 20 10 -20 c7 -16 8 -14 3 10 -3 17 -10 35 -16 40 -7 7 -8 2
-4 -15 l7 -25 -15 25 c-10 15 -15 19 -16 10 0 -13 -1 -13 -10 0 -9 13 -10 13
-10 0 0 -13 -2 -13 -9 0 -13 19 -3 34 14 20 16 -13 30 3 19 23 -4 6 5 0 20
-14 18 -17 29 -40 33 -67 l5 -41 -41 13 c-24 7 -47 19 -52 27 -5 8 -9 10 -9 6
0 -12 -65 54 -78 79 -11 21 -7 34 10 34 5 0 6 -4 3 -10 -3 -5 0 -7 9 -4 15 6
17 -11 3 -33 -6 -9 -3 -11 9 -6 13 5 15 3 9 -8 -5 -8 -4 -11 0 -6 14 12 15 37
2 37 -8 0 -8 3 1 8 17 12 -32 34 -55 25 -11 -4 -14 -3 -9 5 10 17 26 15 63 -8z
m-72 -271 c0 -7 -8 -15 -17 -17 -18 -3 -25 18 -11 32 10 10 28 1 28 -15z m45
10 c0 -8 4 -8 15 1 16 13 35 6 35 -14 0 -9 -14 -13 -40 -13 -32 0 -40 3 -40
18 0 11 7 19 15 19 8 0 15 -5 15 -11z m98 -1 c9 -9 12 -9 12 0 0 7 7 12 15 12
8 0 15 -8 15 -19 0 -15 -8 -18 -40 -18 -37 0 -51 13 -33 30 9 10 17 9 31 -5z
m90 -11 c2 -10 -3 -17 -12 -17 -18 0 -29 16 -21 31 9 14 29 6 33 -14z m90 2
c2 -13 -6 -16 -38 -16 -36 0 -51 12 -35 29 13 13 70 2 73 -13z m48 10 c10 -17
-13 -36 -27 -22 -12 12 -4 33 11 33 5 0 12 -5 16 -11z m92 -10 c2 -13 -6 -16
-38 -16 -36 0 -51 12 -35 29 13 13 70 2 73 -13z m47 0 c0 -7 -8 -15 -17 -17
-18 -3 -25 18 -11 32 10 10 28 1 28 -15z m-485 -43 c0 -20 -19 -31 -32 -18 -6
6 -7 15 -4 21 10 16 36 13 36 -3z m140 -2 c0 -19 -20 -28 -33 -15 -7 7 -14 7
-23 0 -8 -7 -14 -7 -19 1 -5 8 -11 8 -20 0 -16 -13 -35 -5 -35 14 0 10 18 14
65 14 47 0 65 -4 65 -14z m90 0 c0 -17 -17 -27 -25 -14 -5 8 -11 8 -20 0 -16
-13 -35 -5 -35 14 0 9 14 13 40 13 26 0 40 -4 40 -13z m48 -1 c-2 -10 -10 -18
-18 -18 -8 0 -16 8 -18 18 -2 12 3 17 18 17 15 0 20 -5 18 -17z m92 2 c0 -19
-11 -25 -31 -15 -12 7 -20 7 -24 0 -8 -13 -25 -3 -25 14 0 9 14 13 40 13 24 0
40 -4 40 -12z m48 -2 c-2 -10 -10 -18 -18 -18 -8 0 -16 8 -18 18 -2 12 3 17
18 17 15 0 20 -5 18 -17z m45 10 c9 -9 -13 -34 -24 -27 -14 8 -11 34 4 34 8 0
17 -3 20 -7z m-488 -54 c0 -7 -8 -15 -17 -17 -18 -3 -25 18 -11 32 10 10 28 1
28 -15z m45 10 c0 -8 4 -8 15 1 16 13 35 6 35 -14 0 -9 -14 -13 -40 -13 -37 0
-51 13 -33 30 10 11 23 8 23 -4z m98 -1 c9 -9 12 -9 12 0 0 7 7 12 15 12 8 0
15 -8 15 -19 0 -15 -8 -18 -40 -18 -37 0 -51 13 -33 30 9 10 17 9 31 -5z m90
-11 c2 -10 -3 -17 -12 -17 -18 0 -29 16 -21 31 9 14 29 6 33 -14z m90 2 c2
-13 -6 -16 -38 -16 -36 0 -51 12 -35 29 13 13 70 2 73 -13z m47 0 c0 -7 -8
-15 -17 -17 -18 -3 -25 18 -11 32 10 10 28 1 28 -15z m93 0 c2 -13 -6 -16 -38
-16 -36 0 -51 12 -35 29 13 13 70 2 73 -13z m47 0 c0 -7 -8 -15 -17 -17 -18
-3 -25 18 -11 32 10 10 28 1 28 -15z m-507 -52 c2 -9 -4 -20 -12 -23 -21 -8
-46 13 -39 32 8 20 47 13 51 -9z m89 2 c-3 -12 0 -19 8 -19 8 0 11 7 8 19 -4
16 1 18 37 18 36 0 41 -2 37 -18 -3 -12 0 -19 8 -19 8 0 11 8 8 20 -4 16 0 20
17 20 17 0 21 -4 17 -20 -3 -12 0 -20 8 -20 8 0 11 7 8 19 -4 16 1 18 37 18
36 0 41 -2 37 -18 -3 -12 0 -19 8 -19 8 0 11 8 8 20 -4 16 0 20 17 20 17 0 21
-4 17 -20 -3 -12 0 -20 8 -20 8 0 11 7 8 19 -4 15 1 18 35 18 39 0 39 0 39
-38 l0 -39 -222 0 -222 0 0 39 c0 38 0 38 39 38 34 0 39 -3 35 -18z m433 1 c0
-24 -26 -38 -42 -22 -16 16 -2 42 22 42 13 0 20 -7 20 -20z"/>
<path d="M335 618 c25 -15 47 -19 39 -7 -3 5 -9 7 -14 4 -5 -3 -11 -1 -15 5
-3 5 -12 10 -18 10 -7 0 -3 -6 8 -12z"/>
<path d="M625 595 c-16 -13 -26 -24 -21 -25 5 0 1 -9 -9 -20 -10 -11 -15 -23
-12 -27 4 -3 7 -1 7 6 0 7 9 3 20 -10 17 -21 19 -21 13 -4 -6 18 -5 19 13 5
18 -14 18 -14 4 4 -13 18 -13 19 1 14 9 -4 16 -1 16 7 0 8 -5 13 -10 12 -13
-3 -17 32 -5 40 7 3 8 1 4 -5 -4 -6 4 -16 16 -23 21 -11 22 -11 9 5 -12 14
-12 16 3 10 18 -7 19 15 1 28 -15 11 -17 10 -50 -17z m-1 -56 c-3 -5 -10 -7
-15 -3 -5 3 -7 10 -3 15 3 5 10 7 15 3 5 -3 7 -10 3 -15z"/>
<path d="M285 180 c-3 -5 1 -10 10 -10 9 0 13 5 10 10 -3 6 -8 10 -10 10 -2 0
-7 -4 -10 -10z"/>
<path d="M385 180 c-3 -5 1 -10 10 -10 9 0 13 5 10 10 -3 6 -8 10 -10 10 -2 0
-7 -4 -10 -10z"/>
<path d="M660 180 c0 -5 5 -10 11 -10 5 0 7 5 4 10 -3 6 -8 10 -11 10 -2 0 -4
-4 -4 -10z"/>
<path d="M1144 801 c-51 -23 -110 -75 -130 -113 -21 -41 -10 -130 21 -166 31
-36 95 -36 156 1 127 74 188 212 123 272 -34 31 -109 34 -170 6z m154 -7 c13
-9 22 -25 22 -42 0 -66 -119 -207 -196 -232 -48 -16 -84 -6 -84 24 0 19 6 24
38 30 39 6 145 68 172 101 8 10 -5 4 -30 -14 -43 -30 -161 -84 -168 -76 -9 9
13 50 46 87 42 47 83 70 137 78 39 6 40 6 16 19 -48 26 -138 -24 -203 -113
-23 -32 -29 -35 -23 -16 29 103 204 202 273 154z"/>
<path d="M1845 744 c-43 -66 -110 -141 -139 -156 -19 -10 -18 -8 5 23 34 46
36 87 5 95 -28 7 -50 -4 -115 -53 -52 -40 -128 -80 -136 -71 -11 11 8 38 27
38 27 0 98 40 98 56 0 6 -7 17 -16 25 -13 11 -23 9 -60 -10 -72 -39 -103 -110
-54 -126 19 -6 74 16 85 35 10 16 23 12 21 -6 0 -9 6 -21 16 -27 13 -8 24 -5
51 16 29 22 34 23 30 8 -8 -32 27 -35 60 -4 19 18 28 22 24 11 -3 -9 1 -22 9
-29 12 -10 19 -9 36 8 20 21 20 21 40 1 15 -15 28 -19 51 -14 59 12 128 84
114 121 -4 8 -20 18 -36 21 l-30 6 24 32 c16 22 21 36 15 46 -5 8 -11 12 -13
10 -2 -3 -27 -40 -55 -82 -29 -42 -56 -79 -62 -83 -6 -4 -7 -11 -4 -17 4 -6 2
-8 -4 -4 -6 3 -13 2 -17 -4 -3 -5 -15 -15 -27 -21 -25 -14 -24 -11 54 98 32
44 58 86 58 91 0 29 -21 16 -55 -34z m-136 -84 c-42 -36 -110 -82 -115 -77 -8
7 38 58 79 88 47 34 77 24 36 -11z m261 31 c0 -23 -14 -41 -32 -41 -11 0 -29
-5 -40 -11 -34 -18 -17 12 22 39 35 24 50 27 50 13z m-428 -31 c-18 -17 -38
-30 -45 -30 -6 1 4 14 23 30 45 39 65 38 22 0z m370 -50 c-18 -17 -42 -30 -53
-30 -27 0 -16 16 29 40 53 28 62 24 24 -10z"/>
<path d="M1422 685 c-28 -23 -30 -23 -25 -5 3 13 0 20 -8 20 -16 0 -79 -92
-79 -114 0 -23 18 -28 25 -7 9 28 91 101 115 101 11 0 20 7 20 15 0 22 -14 19
-48 -10z"/>
<path d="M2075 698 c-11 -6 -37 -27 -57 -46 -40 -38 -49 -76 -22 -86 16 -6 80
32 70 41 -2 3 -15 -2 -28 -11 -12 -9 -26 -16 -31 -16 -16 0 36 62 77 91 38 28
41 29 53 13 7 -10 16 -14 20 -10 10 9 -25 36 -46 36 -9 0 -25 -6 -36 -12z"/>
<path d="M2100 645 c-29 -31 -35 -59 -15 -75 11 -9 20 -8 43 9 33 23 58 51 46
51 -4 0 -21 -12 -36 -27 -33 -31 -37 -18 -7 21 19 24 19 46 0 46 -4 0 -18 -11
-31 -25z"/>
<path d="M1183 454 c-23 -8 -53 -26 -68 -40 -36 -33 -24 -46 68 -75 71 -23 72
-24 32 -26 -152 -11 -275 -64 -275 -119 0 -85 210 -62 313 34 17 16 27 36 27
54 0 25 -7 32 -44 49 -24 10 -58 22 -76 25 -46 10 -35 34 29 67 52 26 111 36
111 19 0 -4 -16 -23 -35 -42 -42 -41 -38 -50 9 -20 25 15 36 29 36 45 0 44
-51 56 -127 29z m67 -174 c-34 -64 -259 -152 -284 -111 -27 43 138 130 247
131 44 0 47 -1 37 -20z"/>
<path d="M1666 404 c-10 -25 -7 -34 9 -28 17 7 20 30 6 38 -5 3 -12 -1 -15
-10z"/>
<path d="M1352 323 c-48 -31 -71 -75 -52 -98 28 -34 99 -8 139 51 31 45 49 44
21 -1 -12 -20 -19 -43 -16 -52 5 -12 13 -6 36 25 33 46 68 72 99 75 12 1 21 7
21 14 0 17 -20 16 -44 -2 -17 -13 -21 -12 -33 3 -12 16 -14 16 -24 0 -13 -22
-27 -23 -51 -1 -17 15 -18 15 -18 0 0 -10 -5 -17 -11 -17 -6 0 -9 7 -5 15 8
23 -15 18 -62 -12z m37 -59 c-24 -24 -49 -44 -56 -44 -23 0 -14 31 20 65 25
25 40 32 56 28 21 -5 20 -8 -20 -49z"/>
<path d="M1599 292 c-20 -31 -34 -63 -32 -69 7 -18 38 -16 53 2 12 14 15 14
31 -1 20 -18 50 -12 71 13 11 15 11 16 -4 10 -10 -4 -26 -10 -35 -13 -10 -4 4
16 32 45 48 49 80 69 93 57 3 -4 -13 -23 -35 -44 -34 -31 -39 -41 -32 -59 10
-27 41 -30 60 -7 11 14 13 14 22 -1 8 -15 19 -8 73 46 70 69 80 72 35 8 -17
-22 -27 -47 -24 -55 8 -20 37 -17 58 6 23 25 31 25 38 0 8 -33 68 -27 111 11
19 16 38 39 41 50 4 10 16 20 28 20 20 1 21 2 2 6 -11 3 -24 11 -28 19 -19 33
-100 1 -157 -61 -30 -32 -67 -55 -55 -33 4 7 19 28 32 46 25 34 25 62 0 62 -8
0 -20 -7 -27 -16 -8 -8 -23 -20 -34 -26 -18 -10 -19 -9 -9 3 8 10 9 20 2 29
-8 13 -11 12 -21 -5 -14 -25 -100 -107 -106 -101 -2 3 4 17 15 33 25 36 24 76
0 81 -35 7 -64 -8 -127 -63 -34 -31 -64 -54 -67 -51 -3 3 9 25 27 50 28 39 33
67 12 66 -4 -1 -23 -26 -43 -58z m541 38 c0 -5 -4 -10 -9 -10 -6 0 -13 5 -16
10 -3 6 1 10 9 10 9 0 16 -4 16 -10z m-20 -40 c-23 -43 -100 -89 -100 -59 0
21 77 90 94 83 12 -4 13 -11 6 -24z"/>
</g>
</svg>
