  <svg id="logo" xmlns="http://www.w3.org/2000/svg" role="img" viewBox="0 0 84 96">
    <title>Logo</title>
    <g transform="translate(-8.000000, -2.000000)">
      <g transform="translate(11.000000, 5.000000)">
        <path
          d="m 3.6 0.1 c -2.1 0 -3.1 -1.5 -3.1 -4.4 s 1 -4.4 3.1 -4.4 c 1 0 1.8 0.4 2.3 1.1 s 0.8 1.9 0.8 3.3 s -0.2 2.5 -0.8 3.3 s -1.3 1.1 -2.3 1.1 z m 0 -0.9 c 0.7 0 1.2 -0.3 1.5 -0.8 s 0.5 -1.4 0.5 -2.6 c 0 -1.2 -0.2 -2.1 -0.5 -2.6 s -0.8 -0.9 -1.5 -0.9 c -1.3 0 -2 1.1 -2 3.4 s 0.7 3.5 2 3.5 Z M 6 0 m 0.8 -0.3 v -1 c 0.9 0.3 1.7 0.5 2.5 0.5 c 1.4 0 2.1 -0.5 2.1 -1.4 c 0 -0.4 -0.1 -0.7 -0.4 -0.9 s -0.9 -0.5 -1.8 -0.8 c -0.8 -0.3 -1.4 -0.7 -1.7 -1.1 s -0.6 -0.9 -0.6 -1.5 c 0 -0.7 0.3 -1.2 0.8 -1.6 s 1.2 -0.6 2.1 -0.6 c 0.9 0 1.7 0.2 2.4 0.5 l -0.4 1 c -0.7 -0.4 -1.4 -0.5 -2.1 -0.5 c -1.1 0 -1.7 0.4 -1.7 1.2 c 0 0.4 0.1 0.7 0.4 1 s 0.8 0.5 1.6 0.7 c 1 0.3 1.6 0.7 1.9 1.1 s 0.5 0.8 0.5 1.4 c 0 0.8 -0.3 1.3 -0.8 1.8 s -1.4 0.6 -2.3 0.6 c -1.1 0 -1.9 -0.1 -2.5 -0.4 z"
          fill="currentColor"
        />
        <polygon
          id="Shape"
          stroke="currentColor"
          strokeWidth="5"
          strokeLinecap="round"
          strokeLinejoin="round"
          points="39 0 0 22 0 67 39 90 78 68 78 23"
        />
      </g>
    </g>
  </svg>